<?xml version="1.0" encoding="UTF-8" standalone="no"?>
<!DOCTYPE svg PUBLIC "-//W3C//DTD SVG 20010904//EN"
              "http://www.w3.org/TR/2001/REC-SVG-20010904/DTD/svg10.dtd">

<svg xmlns="http://www.w3.org/2000/svg"
     preserveAspectRatio="xMidYMid meet"
     width="120%"
     height="80%"
     viewBox="0 0 787 529">
  <path id="Selection"
        fill="white" stroke="black" stroke-width="1"
        d="M 505.00,486.00
           C 505.00,486.00 233.00,486.00 233.00,486.00
             230.23,486.00 226.64,486.22 224.18,484.83
             221.41,483.25 218.82,478.67 216.98,476.00
             216.98,476.00 203.54,458.00 203.54,458.00
             187.78,438.57 159.18,410.95 139.00,396.15
             115.14,378.65 70.47,350.20 52.59,329.00
             42.50,317.03 33.19,302.19 33.00,286.00
             33.00,286.00 33.00,274.00 33.00,274.00
             33.03,251.81 48.50,233.11 66.00,221.02
             98.44,198.62 143.73,195.71 182.00,190.42
             182.00,190.42 222.00,185.25 222.00,185.25
             226.48,184.51 234.59,183.05 237.71,179.61
             242.62,174.19 231.43,171.52 228.00,170.63
             228.00,170.63 196.00,162.87 196.00,162.87
             192.60,162.00 186.63,160.59 186.74,156.03
             186.83,152.82 190.51,151.02 193.00,149.87
             198.57,147.29 206.97,144.77 213.00,143.42
             213.00,143.42 243.00,137.43 243.00,137.43
             243.00,137.43 257.00,135.39 257.00,135.39
             257.00,135.39 270.00,130.52 270.00,130.52
             279.00,127.49 297.71,123.11 307.00,123.00
             309.82,122.97 314.43,122.74 316.85,124.17
             324.21,128.53 316.49,137.14 312.00,140.03
             304.63,144.77 286.26,145.37 276.00,148.44
             271.80,149.70 264.87,152.71 263.13,157.01
             260.95,162.39 269.31,166.30 273.00,168.25
             281.85,172.94 291.70,179.75 284.99,191.00
             283.92,192.79 282.45,194.45 280.96,195.91
             268.96,207.60 250.64,208.35 235.00,210.28
             203.93,214.12 172.46,217.69 142.00,225.13
             134.07,227.06 120.47,231.13 114.00,235.79
             105.49,241.91 103.80,246.90 111.30,254.83
             119.23,263.22 131.61,268.62 142.00,273.30
             159.35,281.13 177.77,286.09 196.00,291.42
             196.00,291.42 223.00,300.02 223.00,300.02
             307.03,326.14 381.69,357.15 448.00,416.83
             463.59,430.87 474.57,442.95 487.92,459.00
             494.23,466.59 502.58,476.32 505.00,486.00 Z
           M 516.00,144.00
           C 516.00,144.00 538.00,144.00 538.00,144.00
             538.00,144.00 538.00,313.00 538.00,313.00
             538.00,313.00 520.00,313.00 520.00,313.00
             520.00,313.00 518.00,299.00 518.00,299.00
             513.30,304.43 509.76,309.96 503.00,313.09
             498.28,315.27 494.05,315.06 489.00,315.00
             476.49,314.83 467.98,306.08 463.26,295.00
             454.59,273.30 454.68,233.85 463.26,212.00
             468.50,197.85 476.85,190.83 492.00,191.00
             497.15,191.06 500.46,191.73 505.00,194.36
             510.62,197.62 513.17,202.06 517.00,207.00
             517.00,207.00 516.00,144.00 516.00,144.00 Z
           M 291.00,154.00
           C 291.00,154.00 342.00,154.00 342.00,154.00
             342.00,154.00 342.00,168.00 342.00,168.00
             342.00,168.00 329.60,172.51 329.60,172.51
             329.60,172.51 328.00,181.00 328.00,181.00
             328.00,181.00 328.00,200.00 328.00,200.00
             328.00,200.00 328.00,287.00 328.00,287.00
             328.00,287.00 329.60,295.30 329.60,295.30
             329.60,295.30 341.01,300.70 341.01,300.70
             341.01,300.70 342.00,313.00 342.00,313.00
             342.00,313.00 291.00,313.00 291.00,313.00
             291.00,310.63 290.71,303.20 291.57,301.42
             293.11,298.25 301.70,296.51 305.00,296.00
             305.00,296.00 305.00,202.00 305.00,202.00
             305.00,202.00 305.00,179.00 305.00,179.00
             305.00,179.00 303.40,172.70 303.40,172.70
             303.40,172.70 291.00,168.00 291.00,168.00
             291.00,168.00 291.00,154.00 291.00,154.00 Z
           M 382.00,208.00
           C 384.40,200.49 391.15,193.40 399.00,191.53
             401.88,190.84 406.92,190.97 410.00,191.00
             420.64,191.13 428.36,196.08 432.54,206.00
             438.12,219.24 437.00,233.98 437.00,248.00
             437.00,248.00 437.00,313.00 437.00,313.00
             437.00,313.00 415.00,313.00 415.00,313.00
             415.00,313.00 415.00,240.00 415.00,240.00
             414.99,230.73 414.07,212.14 402.00,210.71
             390.39,209.34 385.27,224.01 384.15,233.00
             381.85,251.51 383.00,292.26 383.00,313.00
             383.00,313.00 361.00,313.00 361.00,313.00
             361.00,313.00 361.00,193.00 361.00,193.00
             361.00,193.00 379.00,193.00 379.00,193.00
             379.00,193.00 382.00,208.00 382.00,208.00 Z
           M 658.00,286.00
           C 666.37,290.03 675.21,296.03 685.00,295.53
             695.92,294.98 702.61,283.78 697.43,274.00
             693.33,266.26 679.27,259.41 672.00,253.38
             658.02,241.79 653.68,220.92 662.88,205.00
             670.54,191.74 682.40,190.94 696.00,191.00
             700.13,191.02 701.94,191.07 706.00,192.16
             709.35,193.06 718.36,195.88 719.65,199.21
             720.66,201.84 715.89,212.21 715.00,216.00
             705.61,214.24 695.61,205.10 686.02,211.70
             683.72,213.28 681.89,215.38 680.89,218.00
             680.19,219.82 679.99,222.07 680.20,224.00
             681.20,233.31 691.99,238.92 699.00,243.67
             711.20,251.93 720.81,260.27 720.77,276.00
             721.04,279.84 721.18,286.42 720.77,290.00
             717.77,305.33 706.51,314.81 691.00,315.00
             681.37,315.11 677.46,315.52 668.00,312.85
             665.42,312.12 660.57,310.61 658.99,308.36
             657.75,306.59 658.00,303.12 658.00,301.00
             658.00,301.00 658.00,286.00 658.00,286.00 Z
           M 563.00,193.00
           C 563.00,193.00 586.00,193.00 586.00,193.00
             586.00,193.00 586.00,273.00 586.00,273.00
             586.09,280.30 588.64,292.69 597.00,294.68
             599.51,295.28 602.72,294.69 605.00,293.55
             614.74,288.65 616.88,273.88 617.00,264.00
             617.00,264.00 617.00,193.00 617.00,193.00
             617.00,193.00 640.00,193.00 640.00,193.00
             640.00,193.00 640.00,313.00 640.00,313.00
             636.81,313.00 624.78,313.65 622.74,312.01
             620.42,310.15 620.06,301.92 620.00,299.00
             620.00,299.00 611.70,308.53 611.70,308.53
             605.35,314.55 600.22,315.04 592.00,315.00
             573.42,314.92 567.06,302.59 564.44,286.00
             562.45,273.44 563.00,260.68 563.00,248.00
             563.00,248.00 563.00,193.00 563.00,193.00 Z
           M 495.00,210.36
           C 486.56,212.76 483.44,220.00 481.74,228.00
             479.22,240.63 478.94,265.43 481.74,278.00
             483.72,287.45 488.31,297.91 500.00,296.09
             508.63,294.74 512.67,285.63 514.33,278.00
             516.98,265.86 516.93,237.90 513.57,226.00
             510.88,216.46 505.81,209.57 495.00,210.36 Z" />
</svg>
